<svg width="1066" height="322" viewBox="0 0 1066 322" fill="none" xmlns="http://www.w3.org/2000/svg">
<rect y="44" width="234" height="234" rx="117" fill="#92D0CD"/>
<rect x="107" y="98" width="30" height="126" fill="#373737"/>
<rect x="55" y="196" width="30" height="62" transform="rotate(-90 55 196)" fill="#373737"/>
<rect x="58.5312" y="133.688" width="30" height="57.5118" transform="rotate(-45 58.5312 133.688)" fill="#373737"/>
<rect width="30" height="36.5233" transform="matrix(0.707107 0.707107 0.707107 -0.707107 137 144.826)" fill="#2B7472"/>
<rect width="30" height="10" transform="matrix(-4.37114e-08 1 1 4.37114e-08 117 166)" fill="#373737"/>
<path d="M314.6 253.82C301.947 253.82 290.507 251.653 280.28 247.32C270.227 242.987 262.253 236.747 256.36 228.6C250.467 220.453 247.433 210.833 247.26 199.74H286.26C286.78 207.193 289.38 213.087 294.06 217.42C298.913 221.753 305.5 223.92 313.82 223.92C322.313 223.92 328.987 221.927 333.84 217.94C338.693 213.78 341.12 208.407 341.12 201.82C341.12 196.447 339.473 192.027 336.18 188.56C332.887 185.093 328.727 182.407 323.7 180.5C318.847 178.42 312.087 176.167 303.42 173.74C291.633 170.273 282.013 166.893 274.56 163.6C267.28 160.133 260.953 155.02 255.58 148.26C250.38 141.327 247.78 132.14 247.78 120.7C247.78 109.953 250.467 100.593 255.84 92.62C261.213 84.6467 268.753 78.58 278.46 74.42C288.167 70.0867 299.26 67.92 311.74 67.92C330.46 67.92 345.627 72.5133 357.24 81.7C369.027 90.7133 375.527 103.367 376.74 119.66H336.7C336.353 113.42 333.667 108.307 328.64 104.32C323.787 100.16 317.287 98.08 309.14 98.08C302.033 98.08 296.313 99.9 291.98 103.54C287.82 107.18 285.74 112.467 285.74 119.4C285.74 124.253 287.3 128.327 290.42 131.62C293.713 134.74 297.7 137.34 302.38 139.42C307.233 141.327 313.993 143.58 322.66 146.18C334.447 149.647 344.067 153.113 351.52 156.58C358.973 160.047 365.387 165.247 370.76 172.18C376.133 179.113 378.82 188.213 378.82 199.48C378.82 209.187 376.307 218.2 371.28 226.52C366.253 234.84 358.887 241.513 349.18 246.54C339.473 251.393 327.947 253.82 314.6 253.82ZM446.778 99.9V145.4H507.878V174.26H446.778V222.36H515.678V252H410.378V70.26H515.678V99.9H446.778ZM585.156 99.9V145.4H646.256V174.26H585.156V222.36H654.056V252H548.756V70.26H654.056V99.9H585.156ZM750.575 70.52C769.642 70.52 786.369 74.2467 800.755 81.7C815.315 89.1533 826.495 99.8133 834.295 113.68C842.269 127.373 846.255 143.32 846.255 161.52C846.255 179.72 842.269 195.667 834.295 209.36C826.495 222.88 815.315 233.367 800.755 240.82C786.369 248.273 769.642 252 750.575 252H687.135V70.52H750.575ZM749.275 221.06C768.342 221.06 783.075 215.86 793.475 205.46C803.875 195.06 809.075 180.413 809.075 161.52C809.075 142.627 803.875 127.893 793.475 117.32C783.075 106.573 768.342 101.2 749.275 101.2H723.535V221.06H749.275ZM985.562 70.52V99.9H909.903V146.44H967.883V175.3H909.903V252H873.503V70.52H985.562ZM1047.77 70.52V252H1011.37V70.52H1047.77Z" fill="white"/>
</svg>
