<svg width="1105" height="322" viewBox="0 0 1105 322" fill="none" xmlns="http://www.w3.org/2000/svg">
<rect y="44" width="234" height="234" rx="117" fill="#92D0CD"/>
<rect x="107" y="98" width="30" height="126" fill="#373737"/>
<rect x="55" y="196" width="30" height="62" transform="rotate(-90 55 196)" fill="#373737"/>
<rect x="58.5312" y="133.688" width="30" height="57.5118" transform="rotate(-45 58.5312 133.688)" fill="#373737"/>
<rect width="30" height="36.5233" transform="matrix(0.707107 0.707107 0.707107 -0.707107 137 144.826)" fill="#2B7472"/>
<rect width="30" height="10" transform="matrix(-4.37114e-08 1 1 4.37114e-08 117 166)" fill="#373737"/>
<path d="M353.6 253.82C340.947 253.82 329.507 251.653 319.28 247.32C309.227 242.987 301.253 236.747 295.36 228.6C289.467 220.453 286.433 210.833 286.26 199.74H325.26C325.78 207.193 328.38 213.087 333.06 217.42C337.913 221.753 344.5 223.92 352.82 223.92C361.313 223.92 367.987 221.927 372.84 217.94C377.693 213.78 380.12 208.407 380.12 201.82C380.12 196.447 378.473 192.027 375.18 188.56C371.887 185.093 367.727 182.407 362.7 180.5C357.847 178.42 351.087 176.167 342.42 173.74C330.633 170.273 321.013 166.893 313.56 163.6C306.28 160.133 299.953 155.02 294.58 148.26C289.38 141.327 286.78 132.14 286.78 120.7C286.78 109.953 289.467 100.593 294.84 92.62C300.213 84.6467 307.753 78.58 317.46 74.42C327.167 70.0867 338.26 67.92 350.74 67.92C369.46 67.92 384.627 72.5133 396.24 81.7C408.027 90.7133 414.527 103.367 415.74 119.66H375.7C375.353 113.42 372.667 108.307 367.64 104.32C362.787 100.16 356.287 98.08 348.14 98.08C341.033 98.08 335.313 99.9 330.98 103.54C326.82 107.18 324.74 112.467 324.74 119.4C324.74 124.253 326.3 128.327 329.42 131.62C332.713 134.74 336.7 137.34 341.38 139.42C346.233 141.327 352.993 143.58 361.66 146.18C373.447 149.647 383.067 153.113 390.52 156.58C397.973 160.047 404.387 165.247 409.76 172.18C415.133 179.113 417.82 188.213 417.82 199.48C417.82 209.187 415.307 218.2 410.28 226.52C405.253 234.84 397.887 241.513 388.18 246.54C378.473 251.393 366.947 253.82 353.6 253.82ZM485.778 99.9V145.4H546.878V174.26H485.778V222.36H554.678V252H449.378V70.26H554.678V99.9H485.778ZM624.156 99.9V145.4H685.256V174.26H624.156V222.36H693.056V252H587.756V70.26H693.056V99.9H624.156ZM789.575 70.52C808.642 70.52 825.369 74.2467 839.755 81.7C854.315 89.1533 865.495 99.8133 873.295 113.68C881.269 127.373 885.255 143.32 885.255 161.52C885.255 179.72 881.269 195.667 873.295 209.36C865.495 222.88 854.315 233.367 839.755 240.82C825.369 248.273 808.642 252 789.575 252H726.135V70.52H789.575ZM788.275 221.06C807.342 221.06 822.075 215.86 832.475 205.46C842.875 195.06 848.075 180.413 848.075 161.52C848.075 142.627 842.875 127.893 832.475 117.32C822.075 106.573 807.342 101.2 788.275 101.2H762.535V221.06H788.275ZM1024.56 70.52V99.9H948.903V146.44H1006.88V175.3H948.903V252H912.503V70.52H1024.56ZM1086.77 70.52V252H1050.37V70.52H1086.77Z" fill="white"/>
</svg>
