<svg width="1946" height="387" viewBox="0 0 1946 387" fill="none" xmlns="http://www.w3.org/2000/svg">
<g clip-path="url(#clip0_19535_2404)">
<path d="M935.956 348.655C916.034 371.889 888.441 383.506 853.18 383.506C825.488 383.506 802.181 377.461 783.255 365.372C764.329 353.283 750.184 336.661 740.82 315.505C733.648 299.449 730.062 279.898 730.062 256.853V76.6494H781.76V254.303C781.76 278.67 788.434 298.221 801.781 312.955C815.328 327.688 834.154 335.055 858.26 335.055C875.791 335.055 890.434 330.994 902.188 322.871C913.941 314.749 922.808 303.888 928.784 290.287C932.968 280.087 935.06 268.092 935.06 254.303V76.6494H987.055V376.706H938.346L935.956 348.655Z" fill="#FFF9DC"/>
<path d="M1740.04 112.154C1759.97 88.9206 1787.56 77.3037 1822.82 77.3037C1850.51 77.3037 1873.82 83.3483 1892.75 95.4375C1911.67 107.526 1925.82 124.149 1935.18 145.305C1942.35 161.361 1945.94 180.911 1945.94 203.956V384.16H1894.24V206.506C1894.24 182.139 1887.57 162.589 1874.22 147.855C1860.67 133.121 1841.85 125.755 1817.74 125.755C1800.21 125.755 1785.57 129.816 1773.81 137.938C1762.06 146.061 1753.19 156.922 1747.22 170.522C1743.03 180.722 1740.94 192.717 1740.94 206.506V384.16H1688.95V84.1039H1737.65L1740.04 112.154Z" fill="#FFF9DC"/>
<path d="M1316 75.8535V384.008H1261V75.8535H1316Z" fill="#FFF9DC"/>
<path d="M1266.69 48.7073C1272.48 54.1625 1279.66 56.8901 1288.21 56.8901C1296.48 56.8901 1303.52 54.1625 1309.31 48.7073C1315.1 43.2521 1318 36.498 1318 28.4451C1318 20.3921 1315.1 13.638 1309.31 8.18283C1303.52 2.72761 1296.48 0 1288.21 0C1279.66 0 1272.48 2.72761 1266.69 8.18283C1260.9 13.638 1258 20.3921 1258 28.4451C1258 36.498 1260.9 43.2521 1266.69 48.7073Z" fill="#FFF9DC"/>
<path d="M1646 75.8535V384.008H1591V75.8535H1646Z" fill="#FFF9DC"/>
<path d="M1596.69 48.7073C1602.48 54.1625 1609.66 56.8901 1618.21 56.8901C1626.48 56.8901 1633.52 54.1625 1639.31 48.7073C1645.1 43.2521 1648 36.498 1648 28.4451C1648 20.3921 1645.1 13.638 1639.31 8.18283C1633.52 2.72761 1626.48 0 1618.21 0C1609.66 0 1602.48 2.72761 1596.69 8.18283C1590.9 13.638 1588 20.3921 1588 28.4451C1588 36.498 1590.9 43.2521 1596.69 48.7073Z" fill="#FFF9DC"/>
<path fill-rule="evenodd" clip-rule="evenodd" d="M551.624 194.025C535.257 200.453 517.715 203.761 500 203.761V76.3276H445V383.534H500V256.025V256.1C517.715 256.1 535.257 259.409 551.624 265.837C567.991 272.265 582.862 281.686 595.389 293.564C607.915 305.441 617.852 319.542 624.631 335.06C631.411 350.579 634.9 367.211 634.9 384.008H690C690 360.35 685.085 336.924 675.537 315.067C665.989 293.21 651.993 273.35 634.35 256.622C623.535 246.367 611.479 237.412 598.457 229.931C611.479 222.45 623.535 213.495 634.35 203.24C651.993 186.512 665.989 166.652 675.537 144.795C685.085 122.938 690 99.5114 690 75.8535H634.9C634.9 92.6506 631.411 109.283 624.631 124.802C617.852 140.32 607.915 154.421 595.389 166.298C582.862 178.175 567.991 187.597 551.624 194.025Z" fill="#FFF9DC"/>
<path fill-rule="evenodd" clip-rule="evenodd" d="M1145.29 89.5668C1168.34 80.5133 1193.05 75.8535 1218 75.8535V128.098C1200.28 128.098 1182.74 131.406 1166.38 137.834C1150.01 144.262 1135.14 153.684 1122.61 165.561C1110.08 177.438 1100.15 191.539 1093.37 207.057C1086.59 222.576 1083.1 239.208 1083.1 256.006H1083V383.534H1028V256.006C1028 255.986 1028 255.966 1028 255.947V76.3276H1083V129.238C1083.22 129.031 1083.43 128.825 1083.65 128.619C1101.29 111.89 1122.24 98.6203 1145.29 89.5668Z" fill="#FFF9DC"/>
<path fill-rule="evenodd" clip-rule="evenodd" d="M1475.29 89.5668C1498.34 80.5133 1523.05 75.8535 1548 75.8535V128.098C1530.28 128.098 1512.74 131.406 1496.38 137.834C1480.01 144.262 1465.14 153.684 1452.61 165.561C1440.08 177.438 1430.15 191.539 1423.37 207.057C1416.59 222.576 1413.1 239.208 1413.1 256.006H1413V383.534H1358V256.006C1358 255.986 1358 255.966 1358 255.947V76.3276H1413V129.238C1413.22 129.031 1413.43 128.825 1413.65 128.619C1431.29 111.89 1452.24 98.6203 1475.29 89.5668Z" fill="#FFF9DC"/>
<mask id="mask0_19535_2404" style="mask-type:alpha" maskUnits="userSpaceOnUse" x="0" y="63" width="324" height="324">
<path d="M324 63H0V387H324V63Z" fill="white"/>
</mask>
<g mask="url(#mask0_19535_2404)">
<mask id="mask1_19535_2404" style="mask-type:alpha" maskUnits="userSpaceOnUse" x="65" y="30" width="338" height="403">
<path d="M171.5 432H402.5V30.5H171.5L148.5 131L95.5 184.5L66 229.5L129.5 295.5L171.5 432Z" fill="#0DAB0C" stroke="black"/>
</mask>
<g mask="url(#mask1_19535_2404)">
<path fill-rule="evenodd" clip-rule="evenodd" d="M133.938 196.937C123.156 207.719 111.137 217.134 98.1558 224.999C111.137 232.865 123.156 242.28 133.938 253.062C151.527 270.651 165.479 291.532 174.998 314.513C184.517 337.494 189.417 362.125 189.417 386.999H134.486C134.486 369.338 131.008 351.85 124.249 335.534C117.491 319.217 107.584 304.392 95.0964 291.904C82.6083 279.416 67.7828 269.51 51.4663 262.751C35.1499 255.993 17.662 252.514 0.00116685 252.514L0.00113593 252.415L0.00113833 197.485C17.662 197.485 35.1498 194.006 51.4663 187.248C67.7828 180.489 82.6083 170.583 95.0964 158.095C107.584 145.607 117.491 130.782 124.249 114.465C131.008 98.1486 134.486 80.6608 134.486 63H2.8325e-05L0 387H324V63H189.417C189.417 87.8744 184.517 112.505 174.998 135.486C165.479 158.467 151.527 179.348 133.938 196.937Z" fill="#0DAB0C"/>
</g>
<mask id="mask2_19535_2404" style="mask-type:alpha" maskUnits="userSpaceOnUse" x="-67" y="29" width="222" height="403">
<path d="M154 30H-66V431.5H154V337.5L115 274.5L71.5 225L154 136V30Z" fill="#D9D9D9" stroke="black"/>
</mask>
<g mask="url(#mask2_19535_2404)">
<path fill-rule="evenodd" clip-rule="evenodd" d="M133.934 196.437C123.152 207.219 111.133 216.634 98.1519 224.499C111.133 232.365 123.152 241.78 133.934 252.562C151.523 270.151 165.475 291.032 174.994 314.013C184.513 336.994 189.413 361.625 189.413 386.499H134.482C134.482 368.838 131.004 351.35 124.245 335.034C117.487 318.717 107.581 303.892 95.0925 291.404C82.6044 278.916 67.7789 269.01 51.4624 262.251C35.146 255.493 17.6581 252.014 -0.0027394 252.014L-0.00277032 251.915L-0.00276792 196.985C17.658 196.985 35.1459 193.506 51.4624 186.748C67.7789 179.989 82.6044 170.083 95.0925 157.595C107.581 145.107 117.487 130.282 124.245 113.965C131.004 97.6486 134.482 80.1608 134.482 62.5H-0.00387793L-0.00390625 386.5H323.996V62.5H189.413C189.413 87.3744 184.513 112.005 174.994 134.986C165.475 157.967 151.523 178.848 133.934 196.437Z" fill="#FE7506"/>
</g>
</g>
</g>
<defs>
<clipPath id="clip0_19535_2404">
<rect width="1946" height="387" fill="white"/>
</clipPath>
</defs>
</svg>
