<svg width="913" height="248" viewBox="0 0 913 248" fill="none" xmlns="http://www.w3.org/2000/svg">
<rect y="7" width="234" height="234" rx="117" fill="#92D0CD"/>
<rect x="107" y="61" width="30" height="126" fill="#373737"/>
<rect x="55" y="159" width="30" height="62" transform="rotate(-90 55 159)" fill="#373737"/>
<rect x="58.5312" y="96.6885" width="30" height="57.5118" transform="rotate(-45 58.5312 96.6885)" fill="#373737"/>
<rect width="30" height="36.5233" transform="matrix(0.707107 0.707107 0.707107 -0.707107 137 107.826)" fill="#2B7472"/>
<rect width="30" height="10" transform="matrix(-4.37114e-08 1 1 4.37114e-08 117 129)" fill="#373737"/>
<path d="M335 195.4C325.267 195.4 316.467 193.733 308.6 190.4C300.867 187.067 294.733 182.267 290.2 176C285.667 169.733 283.333 162.333 283.2 153.8H313.2C313.6 159.533 315.6 164.067 319.2 167.4C322.933 170.733 328 172.4 334.4 172.4C340.933 172.4 346.067 170.867 349.8 167.8C353.533 164.6 355.4 160.467 355.4 155.4C355.4 151.267 354.133 147.867 351.6 145.2C349.067 142.533 345.867 140.467 342 139C338.267 137.4 333.067 135.667 326.4 133.8C317.333 131.133 309.933 128.533 304.2 126C298.6 123.333 293.733 119.4 289.6 114.2C285.6 108.867 283.6 101.8 283.6 93C283.6 84.7333 285.667 77.5333 289.8 71.4C293.933 65.2667 299.733 60.6 307.2 57.4C314.667 54.0667 323.2 52.4 332.8 52.4C347.2 52.4 358.867 55.9333 367.8 63C376.867 69.9333 381.867 79.6667 382.8 92.2H352C351.733 87.4 349.667 83.4667 345.8 80.4C342.067 77.2 337.067 75.6 330.8 75.6C325.333 75.6 320.933 77 317.6 79.8C314.4 82.6 312.8 86.6667 312.8 92C312.8 95.7333 314 98.8667 316.4 101.4C318.933 103.8 322 105.8 325.6 107.4C329.333 108.867 334.533 110.6 341.2 112.6C350.267 115.267 357.667 117.933 363.4 120.6C369.133 123.267 374.067 127.267 378.2 132.6C382.333 137.933 384.4 144.933 384.4 153.6C384.4 161.067 382.467 168 378.6 174.4C374.733 180.8 369.067 185.933 361.6 189.8C354.133 193.533 345.267 195.4 335 195.4ZM436.675 77V112H483.675V134.2H436.675V171.2H489.675V194H408.675V54.2H489.675V77H436.675ZM543.12 77V112H590.12V134.2H543.12V171.2H596.12V194H515.12V54.2H596.12V77H543.12ZM670.366 54.4C685.032 54.4 697.899 57.2667 708.966 63C720.166 68.7333 728.766 76.9333 734.766 87.6C740.899 98.1333 743.966 110.4 743.966 124.4C743.966 138.4 740.899 150.667 734.766 161.2C728.766 171.6 720.166 179.667 708.966 185.4C697.899 191.133 685.032 194 670.366 194H621.566V54.4H670.366ZM669.366 170.2C684.032 170.2 695.366 166.2 703.366 158.2C711.366 150.2 715.366 138.933 715.366 124.4C715.366 109.867 711.366 98.5333 703.366 90.4C695.366 82.1333 684.032 78 669.366 78H649.566V170.2H669.366ZM851.125 54.4V77H792.925V112.8H837.525V135H792.925V194H764.925V54.4H851.125ZM898.98 54.4V194H870.98V54.4H898.98Z" fill="white"/>
</svg>
