<svg width="982" height="277" viewBox="0 0 982 277" fill="none" xmlns="http://www.w3.org/2000/svg">
<mask id="path-1-outside-1_569_24" maskUnits="userSpaceOnUse" x="288" y="39" width="678" height="183" fill="black">
<rect fill="white" x="288" y="39" width="678" height="183"/>
<path d="M349.2 217.54C338.493 217.54 328.813 215.707 320.16 212.04C311.653 208.373 304.907 203.093 299.92 196.2C294.933 189.307 292.367 181.167 292.22 171.78H325.22C325.66 178.087 327.86 183.073 331.82 186.74C335.927 190.407 341.5 192.24 348.54 192.24C355.727 192.24 361.373 190.553 365.48 187.18C369.587 183.66 371.64 179.113 371.64 173.54C371.64 168.993 370.247 165.253 367.46 162.32C364.673 159.387 361.153 157.113 356.9 155.5C352.793 153.74 347.073 151.833 339.74 149.78C329.767 146.847 321.627 143.987 315.32 141.2C309.16 138.267 303.807 133.94 299.26 128.22C294.86 122.353 292.66 114.58 292.66 104.9C292.66 95.8067 294.933 87.8867 299.48 81.14C304.027 74.3933 310.407 69.26 318.62 65.74C326.833 62.0733 336.22 60.24 346.78 60.24C362.62 60.24 375.453 64.1267 385.28 71.9C395.253 79.5267 400.753 90.2333 401.78 104.02H367.9C367.607 98.74 365.333 94.4133 361.08 91.04C356.973 87.52 351.473 85.76 344.58 85.76C338.567 85.76 333.727 87.3 330.06 90.38C326.54 93.46 324.78 97.9333 324.78 103.8C324.78 107.907 326.1 111.353 328.74 114.14C331.527 116.78 334.9 118.98 338.86 120.74C342.967 122.353 348.687 124.26 356.02 126.46C365.993 129.393 374.133 132.327 380.44 135.26C386.747 138.193 392.173 142.593 396.72 148.46C401.267 154.327 403.54 162.027 403.54 171.56C403.54 179.773 401.413 187.4 397.16 194.44C392.907 201.48 386.673 207.127 378.46 211.38C370.247 215.487 360.493 217.54 349.2 217.54ZM543.543 152.42C543.543 156.82 543.249 160.78 542.663 164.3H453.563C454.296 173.1 457.376 179.993 462.803 184.98C468.229 189.967 474.903 192.46 482.823 192.46C494.263 192.46 502.403 187.547 507.243 177.72H540.463C536.943 189.453 530.196 199.133 520.223 206.76C510.249 214.24 498.003 217.98 483.483 217.98C471.749 217.98 461.189 215.413 451.803 210.28C442.563 205 435.303 197.593 430.023 188.06C424.889 178.527 422.322 167.527 422.322 155.06C422.322 142.447 424.889 131.373 430.023 121.84C435.156 112.307 442.343 104.973 451.583 99.84C460.823 94.7067 471.456 92.14 483.483 92.14C495.069 92.14 505.409 94.6333 514.503 99.62C523.743 104.607 530.856 111.72 535.843 120.96C540.976 130.053 543.543 140.54 543.543 152.42ZM511.643 143.62C511.496 135.7 508.636 129.393 503.063 124.7C497.489 119.86 490.669 117.44 482.603 117.44C474.976 117.44 468.523 119.787 463.243 124.48C458.109 129.027 454.956 135.407 453.783 143.62H511.643ZM679.324 152.42C679.324 156.82 679.03 160.78 678.444 164.3H589.344C590.077 173.1 593.157 179.993 598.584 184.98C604.01 189.967 610.684 192.46 618.604 192.46C630.044 192.46 638.184 187.547 643.024 177.72H676.244C672.724 189.453 665.977 199.133 656.004 206.76C646.03 214.24 633.784 217.98 619.264 217.98C607.53 217.98 596.97 215.413 587.584 210.28C578.344 205 571.084 197.593 565.804 188.06C560.67 178.527 558.104 167.527 558.104 155.06C558.104 142.447 560.67 131.373 565.804 121.84C570.937 112.307 578.124 104.973 587.364 99.84C596.604 94.7067 607.237 92.14 619.264 92.14C630.85 92.14 641.19 94.6333 650.284 99.62C659.524 104.607 666.637 111.72 671.624 120.96C676.757 130.053 679.324 140.54 679.324 152.42ZM647.424 143.62C647.277 135.7 644.417 129.393 638.844 124.7C633.27 119.86 626.45 117.44 618.384 117.44C610.757 117.44 604.304 119.787 599.024 124.48C593.89 129.027 590.737 135.407 589.564 143.62H647.424ZM693.885 154.62C693.885 142.3 696.305 131.373 701.145 121.84C706.132 112.307 712.878 104.973 721.385 99.84C729.892 94.7067 739.352 92.14 749.765 92.14C757.685 92.14 765.238 93.9 772.425 97.42C779.612 100.793 785.332 105.34 789.585 111.06V53.2H820.825V216H789.585V197.96C785.772 203.973 780.418 208.813 773.525 212.48C766.632 216.147 758.638 217.98 749.545 217.98C739.278 217.98 729.892 215.34 721.385 210.06C712.878 204.78 706.132 197.373 701.145 187.84C696.305 178.16 693.885 167.087 693.885 154.62ZM789.805 155.06C789.805 147.58 788.338 141.2 785.405 135.92C782.472 130.493 778.512 126.387 773.525 123.6C768.538 120.667 763.185 119.2 757.465 119.2C751.745 119.2 746.465 120.593 741.625 123.38C736.785 126.167 732.825 130.273 729.745 135.7C726.812 140.98 725.345 147.287 725.345 154.62C725.345 161.953 726.812 168.407 729.745 173.98C732.825 179.407 736.785 183.587 741.625 186.52C746.612 189.453 751.892 190.92 757.465 190.92C763.185 190.92 768.538 189.527 773.525 186.74C778.512 183.807 782.472 179.7 785.405 174.42C788.338 168.993 789.805 162.54 789.805 155.06ZM906.787 119.42H885.447V216H854.207V119.42H840.347V94.12H854.207V87.96C854.207 73 858.46 62 866.967 54.96C875.473 47.92 888.307 44.62 905.467 45.06V71.02C897.987 70.8733 892.78 72.12 889.847 74.76C886.913 77.4 885.447 82.1667 885.447 89.06V94.12H906.787V119.42ZM942.366 79.6C936.94 79.6 932.393 77.9133 928.726 74.54C925.206 71.02 923.446 66.6933 923.446 61.56C923.446 56.4267 925.206 52.1733 928.726 48.8C932.393 45.28 936.94 43.52 942.366 43.52C947.793 43.52 952.266 45.28 955.786 48.8C959.453 52.1733 961.286 56.4267 961.286 61.56C961.286 66.6933 959.453 71.02 955.786 74.54C952.266 77.9133 947.793 79.6 942.366 79.6ZM957.546 94.12V216H926.746V94.12H957.546Z"/>
</mask>
<path d="M349.2 217.54C338.493 217.54 328.813 215.707 320.16 212.04C311.653 208.373 304.907 203.093 299.92 196.2C294.933 189.307 292.367 181.167 292.22 171.78H325.22C325.66 178.087 327.86 183.073 331.82 186.74C335.927 190.407 341.5 192.24 348.54 192.24C355.727 192.24 361.373 190.553 365.48 187.18C369.587 183.66 371.64 179.113 371.64 173.54C371.64 168.993 370.247 165.253 367.46 162.32C364.673 159.387 361.153 157.113 356.9 155.5C352.793 153.74 347.073 151.833 339.74 149.78C329.767 146.847 321.627 143.987 315.32 141.2C309.16 138.267 303.807 133.94 299.26 128.22C294.86 122.353 292.66 114.58 292.66 104.9C292.66 95.8067 294.933 87.8867 299.48 81.14C304.027 74.3933 310.407 69.26 318.62 65.74C326.833 62.0733 336.22 60.24 346.78 60.24C362.62 60.24 375.453 64.1267 385.28 71.9C395.253 79.5267 400.753 90.2333 401.78 104.02H367.9C367.607 98.74 365.333 94.4133 361.08 91.04C356.973 87.52 351.473 85.76 344.58 85.76C338.567 85.76 333.727 87.3 330.06 90.38C326.54 93.46 324.78 97.9333 324.78 103.8C324.78 107.907 326.1 111.353 328.74 114.14C331.527 116.78 334.9 118.98 338.86 120.74C342.967 122.353 348.687 124.26 356.02 126.46C365.993 129.393 374.133 132.327 380.44 135.26C386.747 138.193 392.173 142.593 396.72 148.46C401.267 154.327 403.54 162.027 403.54 171.56C403.54 179.773 401.413 187.4 397.16 194.44C392.907 201.48 386.673 207.127 378.46 211.38C370.247 215.487 360.493 217.54 349.2 217.54ZM543.543 152.42C543.543 156.82 543.249 160.78 542.663 164.3H453.563C454.296 173.1 457.376 179.993 462.803 184.98C468.229 189.967 474.903 192.46 482.823 192.46C494.263 192.46 502.403 187.547 507.243 177.72H540.463C536.943 189.453 530.196 199.133 520.223 206.76C510.249 214.24 498.003 217.98 483.483 217.98C471.749 217.98 461.189 215.413 451.803 210.28C442.563 205 435.303 197.593 430.023 188.06C424.889 178.527 422.322 167.527 422.322 155.06C422.322 142.447 424.889 131.373 430.023 121.84C435.156 112.307 442.343 104.973 451.583 99.84C460.823 94.7067 471.456 92.14 483.483 92.14C495.069 92.14 505.409 94.6333 514.503 99.62C523.743 104.607 530.856 111.72 535.843 120.96C540.976 130.053 543.543 140.54 543.543 152.42ZM511.643 143.62C511.496 135.7 508.636 129.393 503.063 124.7C497.489 119.86 490.669 117.44 482.603 117.44C474.976 117.44 468.523 119.787 463.243 124.48C458.109 129.027 454.956 135.407 453.783 143.62H511.643ZM679.324 152.42C679.324 156.82 679.03 160.78 678.444 164.3H589.344C590.077 173.1 593.157 179.993 598.584 184.98C604.01 189.967 610.684 192.46 618.604 192.46C630.044 192.46 638.184 187.547 643.024 177.72H676.244C672.724 189.453 665.977 199.133 656.004 206.76C646.03 214.24 633.784 217.98 619.264 217.98C607.53 217.98 596.97 215.413 587.584 210.28C578.344 205 571.084 197.593 565.804 188.06C560.67 178.527 558.104 167.527 558.104 155.06C558.104 142.447 560.67 131.373 565.804 121.84C570.937 112.307 578.124 104.973 587.364 99.84C596.604 94.7067 607.237 92.14 619.264 92.14C630.85 92.14 641.19 94.6333 650.284 99.62C659.524 104.607 666.637 111.72 671.624 120.96C676.757 130.053 679.324 140.54 679.324 152.42ZM647.424 143.62C647.277 135.7 644.417 129.393 638.844 124.7C633.27 119.86 626.45 117.44 618.384 117.44C610.757 117.44 604.304 119.787 599.024 124.48C593.89 129.027 590.737 135.407 589.564 143.62H647.424ZM693.885 154.62C693.885 142.3 696.305 131.373 701.145 121.84C706.132 112.307 712.878 104.973 721.385 99.84C729.892 94.7067 739.352 92.14 749.765 92.14C757.685 92.14 765.238 93.9 772.425 97.42C779.612 100.793 785.332 105.34 789.585 111.06V53.2H820.825V216H789.585V197.96C785.772 203.973 780.418 208.813 773.525 212.48C766.632 216.147 758.638 217.98 749.545 217.98C739.278 217.98 729.892 215.34 721.385 210.06C712.878 204.78 706.132 197.373 701.145 187.84C696.305 178.16 693.885 167.087 693.885 154.62ZM789.805 155.06C789.805 147.58 788.338 141.2 785.405 135.92C782.472 130.493 778.512 126.387 773.525 123.6C768.538 120.667 763.185 119.2 757.465 119.2C751.745 119.2 746.465 120.593 741.625 123.38C736.785 126.167 732.825 130.273 729.745 135.7C726.812 140.98 725.345 147.287 725.345 154.62C725.345 161.953 726.812 168.407 729.745 173.98C732.825 179.407 736.785 183.587 741.625 186.52C746.612 189.453 751.892 190.92 757.465 190.92C763.185 190.92 768.538 189.527 773.525 186.74C778.512 183.807 782.472 179.7 785.405 174.42C788.338 168.993 789.805 162.54 789.805 155.06ZM906.787 119.42H885.447V216H854.207V119.42H840.347V94.12H854.207V87.96C854.207 73 858.46 62 866.967 54.96C875.473 47.92 888.307 44.62 905.467 45.06V71.02C897.987 70.8733 892.78 72.12 889.847 74.76C886.913 77.4 885.447 82.1667 885.447 89.06V94.12H906.787V119.42ZM942.366 79.6C936.94 79.6 932.393 77.9133 928.726 74.54C925.206 71.02 923.446 66.6933 923.446 61.56C923.446 56.4267 925.206 52.1733 928.726 48.8C932.393 45.28 936.94 43.52 942.366 43.52C947.793 43.52 952.266 45.28 955.786 48.8C959.453 52.1733 961.286 56.4267 961.286 61.56C961.286 66.6933 959.453 71.02 955.786 74.54C952.266 77.9133 947.793 79.6 942.366 79.6ZM957.546 94.12V216H926.746V94.12H957.546Z" fill="white"/>
<path d="M320.16 212.04L318.577 215.713L318.588 215.718L318.599 215.723L320.16 212.04ZM299.92 196.2L296.679 198.544L296.679 198.544L299.92 196.2ZM292.22 171.78V167.78H288.157L288.22 171.842L292.22 171.78ZM325.22 171.78L329.21 171.502L328.951 167.78H325.22V171.78ZM331.82 186.74L329.102 189.675L329.129 189.7L329.156 189.724L331.82 186.74ZM365.48 187.18L368.019 190.271L368.051 190.244L368.083 190.217L365.48 187.18ZM367.46 162.32L364.56 165.075L364.56 165.075L367.46 162.32ZM356.9 155.5L355.324 159.177L355.402 159.21L355.481 159.24L356.9 155.5ZM339.74 149.78L338.611 153.617L338.636 153.625L338.661 153.632L339.74 149.78ZM315.32 141.2L313.6 144.811L313.651 144.836L313.703 144.859L315.32 141.2ZM299.26 128.22L296.06 130.62L296.094 130.665L296.129 130.709L299.26 128.22ZM299.48 81.14L302.797 83.3754L302.797 83.3754L299.48 81.14ZM318.62 65.74L320.196 69.4166L320.223 69.4048L320.251 69.3925L318.62 65.74ZM385.28 71.9L382.798 75.0371L382.824 75.0575L382.85 75.0774L385.28 71.9ZM401.78 104.02V108.02H406.089L405.769 103.723L401.78 104.02ZM367.9 104.02L363.906 104.242L364.116 108.02H367.9V104.02ZM361.08 91.04L358.477 94.077L358.535 94.1266L358.594 94.174L361.08 91.04ZM330.06 90.38L327.487 87.3172L327.456 87.3431L327.426 87.3697L330.06 90.38ZM328.74 114.14L325.836 116.891L325.911 116.969L325.989 117.044L328.74 114.14ZM338.86 120.74L337.235 124.395L337.316 124.431L337.397 124.463L338.86 120.74ZM356.02 126.46L354.871 130.291L354.881 130.294L354.891 130.297L356.02 126.46ZM396.72 148.46L393.558 150.91L393.558 150.91L396.72 148.46ZM397.16 194.44L393.736 192.372L393.736 192.372L397.16 194.44ZM378.46 211.38L380.249 214.958L380.274 214.945L380.299 214.932L378.46 211.38ZM349.2 213.54C338.955 213.54 329.816 211.787 321.721 208.357L318.599 215.723C327.811 219.626 338.031 221.54 349.2 221.54V213.54ZM321.743 208.367C313.838 204.959 307.688 200.113 303.161 193.856L296.679 198.544C302.126 206.073 309.469 211.787 318.577 215.713L321.743 208.367ZM303.161 193.856C298.705 187.696 296.355 180.372 296.22 171.718L288.22 171.842C288.379 181.961 291.162 190.918 296.679 198.544L303.161 193.856ZM292.22 175.78H325.22V167.78H292.22V175.78ZM321.23 172.058C321.728 179.194 324.269 185.2 329.102 189.675L334.538 183.805C331.451 180.947 329.592 176.979 329.21 171.502L321.23 172.058ZM329.156 189.724C334.182 194.211 340.8 196.24 348.54 196.24V188.24C342.2 188.24 337.671 186.602 334.484 183.756L329.156 189.724ZM348.54 196.24C356.327 196.24 362.98 194.41 368.019 190.271L362.941 184.089C359.767 186.697 355.127 188.24 348.54 188.24V196.24ZM368.083 190.217C373.107 185.911 375.64 180.24 375.64 173.54H367.64C367.64 177.986 366.066 181.409 362.877 184.143L368.083 190.217ZM375.64 173.54C375.64 168.105 373.942 163.336 370.36 159.565L364.56 165.075C366.551 167.171 367.64 169.881 367.64 173.54H375.64ZM370.36 159.565C367.111 156.145 363.063 153.56 358.319 151.76L355.481 159.24C359.244 160.667 362.236 162.628 364.56 165.075L370.36 159.565ZM358.476 151.823C354.134 149.963 348.221 148.001 340.819 145.928L338.661 153.632C345.925 155.666 351.453 157.517 355.324 159.177L358.476 151.823ZM340.869 145.943C330.987 143.036 323.027 140.232 316.937 137.541L313.703 144.859C320.227 147.741 328.546 150.657 338.611 153.617L340.869 145.943ZM317.04 137.589C311.468 134.935 306.586 131.009 302.391 125.731L296.129 130.709C301.027 136.871 306.852 141.598 313.6 144.811L317.04 137.589ZM302.46 125.82C298.724 120.838 296.66 113.991 296.66 104.9H288.66C288.66 115.169 290.996 123.869 296.06 130.62L302.46 125.82ZM296.66 104.9C296.66 96.5059 298.747 89.3852 302.797 83.3754L296.163 78.9046C291.12 86.3881 288.66 95.1075 288.66 104.9H296.66ZM302.797 83.3754C306.872 77.3287 312.617 72.6645 320.196 69.4166L317.044 62.0634C308.196 65.8554 301.181 71.4579 296.163 78.9046L302.797 83.3754ZM320.251 69.3925C327.869 65.9913 336.685 64.24 346.78 64.24V56.24C335.755 56.24 325.797 58.1553 316.989 62.0874L320.251 69.3925ZM346.78 64.24C361.962 64.24 373.847 67.9564 382.798 75.0371L387.762 68.7629C377.059 60.297 363.278 56.24 346.78 56.24V64.24ZM382.85 75.0774C391.819 81.9357 396.84 91.5401 397.791 104.317L405.769 103.723C404.667 88.9265 398.688 77.1176 387.71 68.7226L382.85 75.0774ZM401.78 100.02H367.9V108.02H401.78V100.02ZM371.894 103.798C371.535 97.3423 368.688 91.9683 363.566 87.906L358.594 94.174C361.979 96.8584 363.678 100.138 363.906 104.242L371.894 103.798ZM363.683 88.003C358.671 83.7065 352.159 81.76 344.58 81.76V89.76C350.787 89.76 355.276 91.3335 358.477 94.077L363.683 88.003ZM344.58 81.76C337.873 81.76 332.044 83.4897 327.487 87.3172L332.633 93.4428C335.41 91.1103 339.26 89.76 344.58 89.76V81.76ZM327.426 87.3697C322.825 91.3953 320.78 97.0961 320.78 103.8H328.78C328.78 98.7705 330.255 95.5247 332.694 93.3903L327.426 87.3697ZM320.78 103.8C320.78 108.852 322.44 113.306 325.836 116.891L331.644 111.389C329.76 109.4 328.78 106.962 328.78 103.8H320.78ZM325.989 117.044C329.145 120.034 332.913 122.474 337.235 124.395L340.485 117.085C336.887 115.486 333.908 113.526 331.491 111.236L325.989 117.044ZM337.397 124.463C341.655 126.136 347.496 128.079 354.871 130.291L357.169 122.629C349.877 120.441 344.278 118.571 340.323 117.017L337.397 124.463ZM354.891 130.297C364.757 133.199 372.692 136.068 378.753 138.887L382.127 131.633C375.575 128.586 367.229 125.587 357.149 122.623L354.891 130.297ZM378.753 138.887C384.443 141.533 389.375 145.513 393.558 150.91L399.882 146.01C394.971 139.674 389.051 134.853 382.127 131.633L378.753 138.887ZM393.558 150.91C397.424 155.898 399.54 162.659 399.54 171.56H407.54C407.54 161.394 405.11 152.755 399.882 146.01L393.558 150.91ZM399.54 171.56C399.54 179.043 397.613 185.955 393.736 192.372L400.584 196.508C405.213 188.845 407.54 180.504 407.54 171.56H399.54ZM393.736 192.372C389.91 198.704 384.263 203.87 376.621 207.828L380.299 214.932C389.084 210.383 395.903 204.256 400.584 196.508L393.736 192.372ZM376.671 207.802C369.126 211.575 360.013 213.54 349.2 213.54V221.54C360.974 221.54 371.367 219.399 380.249 214.958L376.671 207.802ZM542.663 164.3V168.3H546.051L546.608 164.958L542.663 164.3ZM453.563 164.3V160.3H449.215L449.576 164.632L453.563 164.3ZM462.803 184.98L460.096 187.925L460.096 187.925L462.803 184.98ZM507.243 177.72V173.72H504.754L503.654 175.953L507.243 177.72ZM540.463 177.72L544.294 178.869L545.839 173.72H540.463V177.72ZM520.223 206.76L522.623 209.96L522.637 209.949L522.652 209.937L520.223 206.76ZM451.803 210.28L449.818 213.753L449.85 213.772L449.883 213.789L451.803 210.28ZM430.023 188.06L426.501 189.956L426.512 189.977L426.523 189.998L430.023 188.06ZM430.023 121.84L426.501 119.944L426.501 119.944L430.023 121.84ZM451.583 99.84L453.525 103.337L453.525 103.337L451.583 99.84ZM514.503 99.62L512.579 103.127L512.591 103.134L512.603 103.14L514.503 99.62ZM535.843 120.96L532.322 122.86L532.34 122.893L532.359 122.926L535.843 120.96ZM511.643 143.62V147.62H515.717L515.642 143.546L511.643 143.62ZM503.063 124.7L500.44 127.72L500.463 127.74L500.486 127.76L503.063 124.7ZM463.243 124.48L465.895 127.474L465.9 127.47L463.243 124.48ZM453.783 143.62L449.823 143.054L449.17 147.62H453.783V143.62ZM539.543 152.42C539.543 156.648 539.26 160.383 538.717 163.642L546.608 164.958C547.238 161.177 547.543 156.992 547.543 152.42H539.543ZM542.663 160.3H453.563V168.3H542.663V160.3ZM449.576 164.632C450.376 174.223 453.788 182.129 460.096 187.925L465.509 182.035C460.963 177.858 458.216 171.977 457.549 163.968L449.576 164.632ZM460.096 187.925C466.319 193.644 473.982 196.46 482.823 196.46V188.46C475.823 188.46 470.14 186.29 465.509 182.035L460.096 187.925ZM482.823 196.46C489.122 196.46 494.765 195.103 499.575 192.2C504.395 189.29 508.125 184.98 510.831 179.487L503.654 175.953C501.52 180.286 498.76 183.347 495.44 185.35C492.11 187.361 487.963 188.46 482.823 188.46V196.46ZM507.243 181.72H540.463V173.72H507.243V181.72ZM536.631 176.571C533.36 187.476 527.115 196.454 517.793 203.583L522.652 209.937C533.277 201.813 540.525 191.431 544.294 178.869L536.631 176.571ZM517.823 203.56C508.651 210.438 497.285 213.98 483.483 213.98V221.98C498.72 221.98 511.847 218.042 522.623 209.96L517.823 203.56ZM483.483 213.98C472.354 213.98 462.464 211.552 453.722 206.771L449.883 213.789C459.914 219.275 471.145 221.98 483.483 221.98V213.98ZM453.787 206.807C445.199 201.899 438.456 195.031 433.522 186.122L426.523 189.998C432.149 200.156 439.926 208.101 449.818 213.753L453.787 206.807ZM433.544 186.164C428.77 177.296 426.322 166.966 426.322 155.06H418.322C418.322 168.088 421.009 179.757 426.501 189.956L433.544 186.164ZM426.322 155.06C426.322 142.999 428.773 132.597 433.544 123.736L426.501 119.944C421.005 130.149 418.322 141.894 418.322 155.06H426.322ZM433.544 123.736C438.324 114.859 444.971 108.089 453.525 103.337L449.64 96.3434C439.714 101.858 431.987 109.754 426.501 119.944L433.544 123.736ZM453.525 103.337C462.093 98.5767 472.041 96.14 483.483 96.14V88.14C470.871 88.14 459.552 90.8367 449.64 96.3434L453.525 103.337ZM483.483 96.14C494.477 96.14 504.142 98.5004 512.579 103.127L516.426 96.1127C506.676 90.7663 495.661 88.14 483.483 88.14V96.14ZM512.603 103.14C521.156 107.756 527.706 114.306 532.322 122.86L539.363 119.06C534.005 109.134 526.329 101.457 516.402 96.0999L512.603 103.14ZM532.359 122.926C537.109 131.341 539.543 141.133 539.543 152.42H547.543C547.543 139.947 544.842 128.766 539.326 118.994L532.359 122.926ZM515.642 143.546C515.476 134.585 512.178 127.147 505.639 121.64L500.486 127.76C505.093 131.64 507.516 136.815 507.643 143.694L515.642 143.546ZM505.685 121.68C499.315 116.147 491.537 113.44 482.603 113.44V121.44C489.802 121.44 495.664 123.573 500.44 127.72L505.685 121.68ZM482.603 113.44C474.081 113.44 466.658 116.092 460.585 121.49L465.9 127.47C470.387 123.481 475.871 121.44 482.603 121.44V113.44ZM460.59 121.486C454.606 126.786 451.101 134.107 449.823 143.054L457.742 144.186C458.811 136.706 461.613 131.267 465.895 127.474L460.59 121.486ZM453.783 147.62H511.643V139.62H453.783V147.62ZM678.444 164.3V168.3H681.832L682.389 164.958L678.444 164.3ZM589.344 164.3V160.3H584.997L585.358 164.632L589.344 164.3ZM598.584 184.98L595.877 187.925L595.877 187.925L598.584 184.98ZM643.024 177.72V173.72H640.535L639.435 175.953L643.024 177.72ZM676.244 177.72L680.075 178.869L681.62 173.72H676.244V177.72ZM656.004 206.76L658.404 209.96L658.419 209.949L658.434 209.937L656.004 206.76ZM587.584 210.28L585.599 213.753L585.632 213.772L585.665 213.789L587.584 210.28ZM565.804 188.06L562.282 189.956L562.293 189.977L562.305 189.998L565.804 188.06ZM565.804 121.84L562.282 119.944L562.282 119.944L565.804 121.84ZM587.364 99.84L589.306 103.337L589.306 103.337L587.364 99.84ZM650.284 99.62L648.36 103.127L648.372 103.134L648.384 103.14L650.284 99.62ZM671.624 120.96L668.104 122.86L668.122 122.893L668.14 122.926L671.624 120.96ZM647.424 143.62V147.62H651.499L651.423 143.546L647.424 143.62ZM638.844 124.7L636.221 127.72L636.244 127.74L636.267 127.76L638.844 124.7ZM599.024 124.48L601.676 127.474L601.681 127.47L599.024 124.48ZM589.564 143.62L585.604 143.054L584.952 147.62H589.564V143.62ZM675.324 152.42C675.324 156.648 675.041 160.383 674.498 163.642L682.389 164.958C683.019 161.177 683.324 156.992 683.324 152.42H675.324ZM678.444 160.3H589.344V168.3H678.444V160.3ZM585.358 164.632C586.157 174.223 589.569 182.129 595.877 187.925L601.29 182.035C596.745 177.858 593.997 171.977 593.33 163.968L585.358 164.632ZM595.877 187.925C602.1 193.644 609.763 196.46 618.604 196.46V188.46C611.605 188.46 605.921 186.29 601.29 182.035L595.877 187.925ZM618.604 196.46C624.904 196.46 630.546 195.103 635.356 192.2C640.176 189.29 643.907 184.98 646.612 179.487L639.435 175.953C637.301 180.286 634.541 183.347 631.222 185.35C627.892 187.361 623.744 188.46 618.604 188.46V196.46ZM643.024 181.72H676.244V173.72H643.024V181.72ZM672.412 176.571C669.141 187.476 662.896 196.454 653.574 203.583L658.434 209.937C669.058 201.813 676.307 191.431 680.075 178.869L672.412 176.571ZM653.604 203.56C644.432 210.438 633.066 213.98 619.264 213.98V221.98C634.501 221.98 647.628 218.042 658.404 209.96L653.604 203.56ZM619.264 213.98C608.135 213.98 598.246 211.552 589.503 206.771L585.665 213.789C595.695 219.275 606.926 221.98 619.264 221.98V213.98ZM589.568 206.807C580.98 201.899 574.237 195.031 569.303 186.122L562.305 189.998C567.93 200.156 575.707 208.101 585.599 213.753L589.568 206.807ZM569.326 186.164C564.551 177.296 562.104 166.966 562.104 155.06H554.104C554.104 168.088 556.79 179.757 562.282 189.956L569.326 186.164ZM562.104 155.06C562.104 142.999 564.554 132.597 569.326 123.736L562.282 119.944C556.787 130.149 554.104 141.894 554.104 155.06H562.104ZM569.326 123.736C574.106 114.859 580.752 108.089 589.306 103.337L585.421 96.3434C575.496 101.858 567.768 109.754 562.282 119.944L569.326 123.736ZM589.306 103.337C597.874 98.5767 607.822 96.14 619.264 96.14V88.14C606.652 88.14 595.333 90.8367 585.421 96.3434L589.306 103.337ZM619.264 96.14C630.258 96.14 639.923 98.5004 648.36 103.127L652.207 96.1127C642.458 90.7663 631.443 88.14 619.264 88.14V96.14ZM648.384 103.14C656.937 107.756 663.488 114.306 668.104 122.86L675.144 119.06C669.787 109.134 662.11 101.457 652.183 96.0999L648.384 103.14ZM668.14 122.926C672.891 131.341 675.324 141.133 675.324 152.42H683.324C683.324 139.947 680.624 128.766 675.107 118.994L668.14 122.926ZM651.423 143.546C651.257 134.585 647.96 127.147 641.42 121.64L636.267 127.76C640.875 131.64 643.297 136.815 643.424 143.694L651.423 143.546ZM641.466 121.68C635.096 116.147 627.318 113.44 618.384 113.44V121.44C625.583 121.44 631.445 123.573 636.221 127.72L641.466 121.68ZM618.384 113.44C609.862 113.44 602.439 116.092 596.366 121.49L601.681 127.47C606.168 123.481 611.652 121.44 618.384 121.44V113.44ZM596.372 121.486C590.387 126.786 586.882 134.107 585.604 143.054L593.524 144.186C594.592 136.706 597.394 131.267 601.676 127.474L596.372 121.486ZM589.564 147.62H647.424V139.62H589.564V147.62ZM701.145 121.84L697.601 119.986L697.589 120.008L697.578 120.029L701.145 121.84ZM721.385 99.84L723.452 103.265L723.452 103.265L721.385 99.84ZM772.425 97.42L770.666 101.012L770.695 101.027L770.725 101.041L772.425 97.42ZM789.585 111.06L786.375 113.447L793.585 123.143V111.06H789.585ZM789.585 53.2V49.2H785.585V53.2H789.585ZM820.825 53.2H824.825V49.2H820.825V53.2ZM820.825 216V220H824.825V216H820.825ZM789.585 216H785.585V220H789.585V216ZM789.585 197.96H793.585V184.183L786.207 195.818L789.585 197.96ZM773.525 212.48L771.647 208.949L771.647 208.949L773.525 212.48ZM721.385 210.06L723.494 206.661L723.494 206.661L721.385 210.06ZM701.145 187.84L697.567 189.629L697.584 189.662L697.601 189.694L701.145 187.84ZM785.405 135.92L781.886 137.822L781.897 137.842L781.908 137.863L785.405 135.92ZM773.525 123.6L771.497 127.048L771.535 127.07L771.574 127.092L773.525 123.6ZM741.625 123.38L739.629 119.914L739.629 119.914L741.625 123.38ZM729.745 135.7L726.266 133.726L726.257 133.741L726.248 133.757L729.745 135.7ZM729.745 173.98L726.205 175.843L726.235 175.899L726.266 175.954L729.745 173.98ZM741.625 186.52L739.552 189.941L739.574 189.954L739.597 189.968L741.625 186.52ZM773.525 186.74L775.476 190.232L775.515 190.21L775.553 190.188L773.525 186.74ZM785.405 174.42L788.902 176.363L788.913 176.342L788.924 176.322L785.405 174.42ZM697.885 154.62C697.885 142.833 700.197 132.543 704.712 123.651L697.578 120.029C692.413 130.204 689.885 141.767 689.885 154.62H697.885ZM704.689 123.694C709.366 114.754 715.624 107.988 723.452 103.265L719.318 96.4152C710.133 101.958 702.898 109.859 697.601 119.986L704.689 123.694ZM723.452 103.265C731.304 98.5262 740.043 96.14 749.765 96.14V88.14C738.66 88.14 728.479 90.8871 719.318 96.4153L723.452 103.265ZM749.765 96.14C757.069 96.14 764.021 97.7576 770.666 101.012L774.184 93.8277C766.456 90.0424 758.301 88.14 749.765 88.14V96.14ZM770.725 101.041C777.384 104.166 782.559 108.315 786.375 113.447L792.795 108.673C788.104 102.365 781.84 97.4204 774.125 93.799L770.725 101.041ZM793.585 111.06V53.2H785.585V111.06H793.585ZM789.585 57.2H820.825V49.2H789.585V57.2ZM816.825 53.2V216H824.825V53.2H816.825ZM820.825 212H789.585V220H820.825V212ZM793.585 216V197.96H785.585V216H793.585ZM786.207 195.818C782.8 201.191 777.989 205.575 771.647 208.949L775.403 216.011C782.848 212.052 788.743 206.756 792.963 200.102L786.207 195.818ZM771.647 208.949C765.42 212.26 758.091 213.98 749.545 213.98V221.98C759.185 221.98 767.843 220.033 775.403 216.011L771.647 208.949ZM749.545 213.98C740.004 213.98 731.351 211.538 723.494 206.661L719.276 213.459C728.432 219.142 738.553 221.98 749.545 221.98V213.98ZM723.494 206.661C715.641 201.787 709.37 194.934 704.689 185.986L697.601 189.694C702.893 199.812 710.116 207.773 719.276 213.459L723.494 206.661ZM704.723 186.051C700.2 177.005 697.885 166.56 697.885 154.62H689.885C689.885 167.613 692.41 179.315 697.567 189.629L704.723 186.051ZM793.805 155.06C793.805 147.06 792.235 139.977 788.902 133.977L781.908 137.863C784.442 142.423 785.805 148.1 785.805 155.06H793.805ZM788.924 134.018C785.659 127.979 781.179 123.295 775.476 120.108L771.574 127.092C775.845 129.478 779.284 133.008 781.886 137.822L788.924 134.018ZM775.553 120.152C769.959 116.862 763.907 115.2 757.465 115.2V123.2C762.463 123.2 767.118 124.472 771.497 127.048L775.553 120.152ZM757.465 115.2C751.062 115.2 745.091 116.769 739.629 119.914L743.621 126.846C747.839 124.418 752.428 123.2 757.465 123.2V115.2ZM739.629 119.914C734.1 123.097 729.656 127.753 726.266 133.726L733.224 137.674C735.994 132.794 739.47 129.237 743.621 126.846L739.629 119.914ZM726.248 133.757C722.921 139.746 721.345 146.752 721.345 154.62H729.345C729.345 147.822 730.702 142.214 733.242 137.643L726.248 133.757ZM721.345 154.62C721.345 162.495 722.923 169.607 726.205 175.843L733.285 172.117C730.7 167.206 729.345 161.411 729.345 154.62H721.345ZM726.266 175.954C729.648 181.913 734.069 186.618 739.552 189.941L743.698 183.099C739.501 180.555 736.002 176.9 733.224 172.006L726.266 175.954ZM739.597 189.968C745.174 193.248 751.151 194.92 757.465 194.92V186.92C752.633 186.92 748.049 185.658 743.653 183.072L739.597 189.968ZM757.465 194.92C763.867 194.92 769.892 193.352 775.476 190.232L771.574 183.248C767.184 185.701 762.503 186.92 757.465 186.92V194.92ZM775.553 190.188C781.182 186.876 785.638 182.238 788.902 176.363L781.908 172.477C779.306 177.162 775.841 180.737 771.497 183.292L775.553 190.188ZM788.924 176.322C792.233 170.199 793.805 163.064 793.805 155.06H785.805C785.805 162.016 784.443 167.787 781.886 172.518L788.924 176.322ZM906.787 119.42V123.42H910.787V119.42H906.787ZM885.447 119.42V115.42H881.447V119.42H885.447ZM885.447 216V220H889.447V216H885.447ZM854.207 216H850.207V220H854.207V216ZM854.207 119.42H858.207V115.42H854.207V119.42ZM840.347 119.42H836.347V123.42H840.347V119.42ZM840.347 94.12V90.12H836.347V94.12H840.347ZM854.207 94.12V98.12H858.207V94.12H854.207ZM866.967 54.96L864.416 51.8784L864.416 51.8784L866.967 54.96ZM905.467 45.06H909.467V41.1612L905.569 41.0613L905.467 45.06ZM905.467 71.02L905.388 75.0192L909.467 75.0992V71.02H905.467ZM889.847 74.76L887.171 71.7868L889.847 74.76ZM885.447 94.12H881.447V98.12H885.447V94.12ZM906.787 94.12H910.787V90.12H906.787V94.12ZM906.787 115.42H885.447V123.42H906.787V115.42ZM881.447 119.42V216H889.447V119.42H881.447ZM885.447 212H854.207V220H885.447V212ZM858.207 216V119.42H850.207V216H858.207ZM854.207 115.42H840.347V123.42H854.207V115.42ZM844.347 119.42V94.12H836.347V119.42H844.347ZM840.347 98.12H854.207V90.12H840.347V98.12ZM858.207 94.12V87.96H850.207V94.12H858.207ZM858.207 87.96C858.207 73.7437 862.225 64.0759 869.517 58.0416L864.416 51.8784C854.694 59.924 850.207 72.2563 850.207 87.96H858.207ZM869.517 58.0416C876.962 51.8802 888.658 48.6303 905.364 49.0587L905.569 41.0613C887.955 40.6097 873.985 43.9598 864.416 51.8784L869.517 58.0416ZM901.467 45.06V71.02H909.467V45.06H901.467ZM905.545 67.0208C897.853 66.8699 891.296 68.0741 887.171 71.7868L892.522 77.7332C894.264 76.1659 898.121 74.8767 905.388 75.0192L905.545 67.0208ZM887.171 71.7868C882.944 75.5913 881.447 81.8295 881.447 89.06H889.447C889.447 82.5038 890.883 79.2087 892.522 77.7332L887.171 71.7868ZM881.447 89.06V94.12H889.447V89.06H881.447ZM885.447 98.12H906.787V90.12H885.447V98.12ZM902.787 94.12V119.42H910.787V94.12H902.787ZM928.726 74.54L925.898 77.3684L925.957 77.4273L926.018 77.4837L928.726 74.54ZM928.726 48.8L931.494 51.6879L931.497 51.6855L928.726 48.8ZM955.786 48.8L952.958 51.6284L953.017 51.6873L953.078 51.7437L955.786 48.8ZM955.786 74.54L958.554 77.428L958.557 77.4255L955.786 74.54ZM957.546 94.12H961.546V90.12H957.546V94.12ZM957.546 216V220H961.546V216H957.546ZM926.746 216H922.746V220H926.746V216ZM926.746 94.12V90.12H922.746V94.12H926.746ZM942.366 75.6C937.846 75.6 934.294 74.2272 931.435 71.5963L926.018 77.4837C930.492 81.5995 936.034 83.6 942.366 83.6V75.6ZM931.555 71.7116C928.811 68.9675 927.446 65.6695 927.446 61.56H919.446C919.446 67.7172 921.602 73.0725 925.898 77.3684L931.555 71.7116ZM927.446 61.56C927.446 57.4525 928.807 54.2633 931.494 51.6879L925.959 45.912C921.606 50.0834 919.446 55.4009 919.446 61.56H927.446ZM931.497 51.6855C934.365 48.9322 937.895 47.52 942.366 47.52V39.52C935.984 39.52 930.422 41.6278 925.956 45.9144L931.497 51.6855ZM942.366 47.52C946.838 47.52 950.259 48.9299 952.958 51.6284L958.615 45.9716C954.273 41.6301 948.749 39.52 942.366 39.52V47.52ZM953.078 51.7437C955.894 54.334 957.286 57.5069 957.286 61.56H965.286C965.286 55.3464 963.012 50.0127 958.495 45.8563L953.078 51.7437ZM957.286 61.56C957.286 65.6164 955.888 68.8972 953.016 71.6545L958.557 77.4255C963.018 73.1428 965.286 67.7703 965.286 61.56H957.286ZM953.019 71.652C950.33 74.2285 946.889 75.6 942.366 75.6V83.6C948.698 83.6 954.203 81.5981 958.554 77.428L953.019 71.652ZM953.546 94.12V216H961.546V94.12H953.546ZM957.546 212H926.746V220H957.546V212ZM930.746 216V94.12H922.746V216H930.746ZM926.746 98.12H957.546V90.12H926.746V98.12Z" fill="#003744" mask="url(#path-1-outside-1_569_24)"/>
<rect y="22" width="234" height="234" rx="117" fill="#92D0CD"/>
<rect x="107" y="76" width="30" height="126" fill="#373737"/>
<rect x="55" y="174" width="30" height="62" transform="rotate(-90 55 174)" fill="#373737"/>
<rect x="58.5312" y="111.688" width="30" height="57.5118" transform="rotate(-45 58.5312 111.688)" fill="#373737"/>
<rect width="30" height="36.5233" transform="matrix(0.707107 0.707107 0.707107 -0.707107 137 122.826)" fill="#2B7472"/>
<rect width="30" height="10" transform="matrix(-4.37114e-08 1 1 4.37114e-08 117 144)" fill="#373737"/>
</svg>
